<?xml version="1.0" encoding="UTF-8" standalone="no"?> <svg id="Layer_1" data-name="Layer 1" xmlns="http://www.w3.org/2000/svg" viewBox="0 0 100 100"><path d="M86.812,35.89a7.048,7.048,0,0,0-6.262-3.84H66.02V23.47a1.5,1.5,0,0,0-1.5-1.5H5a1.5,1.5,0,0,0-1.5,1.5V69.021a1.5,1.5,0,0,0,1.5,1.5H18.081a10.874,10.874,0,0,0,20.68,0H69.422a10.871,10.871,0,0,0,20.926-.9,10.586,10.586,0,0,0,1.77-.951A10.368,10.368,0,0,0,96.5,60.24V57.4a10.315,10.315,0,0,0-1.113-4.65Zm-2.669,1.371L89.814,48.41h-9.89a1.676,1.676,0,0,1-1.674-1.674V35.05h2.3A4.052,4.052,0,0,1,84.143,37.261ZM28.421,75.03A7.894,7.894,0,0,1,20.7,68.742l-.007-.037a7.883,7.883,0,1,1,15.454-.015c-.005.022-.009.045-.013.068A7.894,7.894,0,0,1,28.421,75.03Zm0-18.763A10.893,10.893,0,0,0,17.54,67.148c0,.126.014.248.018.373H6.5V24.97H63.02V67.521H39.284c0-.125.019-.247.019-.373A10.894,10.894,0,0,0,28.421,56.267ZM79.762,75.03a7.9,7.9,0,0,1-7.721-6.294l0-.025a7.882,7.882,0,1,1,7.725,6.319ZM93.5,60.24a7.343,7.343,0,0,1-2.911,5.823A10.882,10.882,0,0,0,68.88,67.148c0,.126.015.248.019.373H66.02V35.05h9.23V46.736a4.68,4.68,0,0,0,4.674,4.674H91.339l1.373,2.7A7.285,7.285,0,0,1,93.5,57.4Z"/><path d="M11.5,39.875H54.021a1.5,1.5,0,0,0,0-3H11.5a1.5,1.5,0,0,0,0,3Z"/><path d="M55.521,48.062a1.5,1.5,0,0,0-1.5-1.5H11.5a1.5,1.5,0,0,0,0,3H54.021A1.5,1.5,0,0,0,55.521,48.062Z"/><path d="M79.76,61.8A5.344,5.344,0,1,0,85.1,67.148,5.35,5.35,0,0,0,79.76,61.8Zm0,7.688A2.344,2.344,0,1,1,82.1,67.148,2.347,2.347,0,0,1,79.76,69.492Z"/><path d="M28.421,61.8a5.344,5.344,0,1,0,5.344,5.344A5.349,5.349,0,0,0,28.421,61.8Zm0,7.688a2.344,2.344,0,1,1,2.344-2.344A2.346,2.346,0,0,1,28.421,69.492Z"/></svg>